<svg width="358" height="78" viewBox="0 0 358 78" fill="none" xmlns="http://www.w3.org/2000/svg">
<path d="M356 39.5V41H357.5V39.5H356ZM12 39.5V38H10.5V39.5H12ZM10.9393 77.5607C11.5251 78.1464 12.4749 78.1464 13.0607 77.5607L22.6066 68.0147C23.1924 67.4289 23.1924 66.4792 22.6066 65.8934C22.0208 65.3076 21.0711 65.3076 20.4853 65.8934L12 74.3787L3.51472 65.8934C2.92893 65.3076 1.97919 65.3076 1.3934 65.8934C0.807611 66.4792 0.807611 67.4289 1.3934 68.0147L10.9393 77.5607ZM354.5 0V39.5H357.5V0H354.5ZM356 38H12V41H356V38ZM10.5 39.5V76.5H13.5V39.5H10.5Z" fill="#FFA800"/>
</svg>
