<svg width="271" height="65" viewBox="0 0 271 65" fill="none" xmlns="http://www.w3.org/2000/svg">
<path d="M139 28.5215L138.827 30.0114L139 28.5215ZM1.45575 64.1744L0.347065 51.9772L12.5442 50.8686L13.6529 63.0657L1.45575 64.1744ZM270.138 2.29057C248.088 27.963 211.944 38.5204 138.827 30.0114L139.173 27.0315C212.056 35.5132 246.836 24.8164 267.862 0.335892L270.138 2.29057ZM138.827 30.0114C111.887 26.8764 85.7987 26.0465 63.1284 29.9979C40.4679 33.9475 21.345 42.6509 8.15232 58.4818L5.84766 56.5612C19.6439 40.0062 39.521 31.0674 62.6133 27.0424C85.6957 23.0193 112.113 23.8824 139.173 27.0315L138.827 30.0114Z" fill="#FFA337"/>
</svg>
