<svg width="271" height="65" viewBox="0 0 271 65" fill="none" xmlns="http://www.w3.org/2000/svg">
<path d="M132 28.5215L132.173 30.0114L132 28.5215ZM269.544 64.1744L270.653 51.9772L258.456 50.8686L257.347 63.0657L269.544 64.1744ZM0.862105 2.29057C22.9122 27.963 59.0559 38.5204 132.173 30.0114L131.827 27.0315C58.9441 35.5132 24.1642 24.8164 3.13789 0.335892L0.862105 2.29057ZM132.173 30.0114C159.113 26.8764 185.201 26.0465 207.872 29.9979C230.532 33.9475 249.655 42.6509 262.848 58.4818L265.152 56.5612C251.356 40.0062 231.479 31.0674 208.387 27.0424C185.304 23.0193 158.887 23.8824 131.827 27.0315L132.173 30.0114Z" fill="#FF8A00"/>
</svg>
